<svg xmlns="http://www.w3.org/2000/svg" viewBox="0 0 100 100" width="100" height="100" role="img" aria-label="Subtitle Editor">
  <!-- Maskable (Android) + apple-touch: opaque white fill (launcher masks/rounds),
       mark in the ~80% safe zone, bright quartet stripes. -->
  <rect width="100" height="100" fill="#ffffff"/>

  <g transform="translate(50 50) scale(0.8) translate(-50 -50)">
    <rect x="16" y="16" width="34" height="6" rx="1" fill="#ffc83d"/>
    <rect x="38" y="26" width="44" height="6" rx="1" fill="#4dabf7"/>
    <rect x="20" y="36" width="30" height="6" rx="1" fill="#ff6b6b"/>
    <rect x="46" y="46" width="36" height="6" rx="1" fill="#51cf66"/>

    <g fill="#cf4fa6">
      <rect x="16"   y="67" width="2.5" height="10" rx="1.25"/>
      <rect x="20.9" y="63" width="2.5" height="18" rx="1.25"/>
      <rect x="25.8" y="66" width="2.5" height="12" rx="1.25"/>
      <rect x="30.7" y="60" width="2.5" height="24" rx="1.25"/>
      <rect x="35.6" y="64" width="2.5" height="16" rx="1.25"/>
      <rect x="40.5" y="59" width="2.5" height="26" rx="1.25"/>
      <rect x="45.4" y="65" width="2.5" height="14" rx="1.25"/>
    </g>
    <g fill="#1690b5">
      <rect x="50.3" y="61" width="2.5" height="22" rx="1.25"/>
      <rect x="55.2" y="66" width="2.5" height="12" rx="1.25"/>
      <rect x="60.1" y="62" width="2.5" height="20" rx="1.25"/>
      <rect x="65"   y="67" width="2.5" height="10" rx="1.25"/>
      <rect x="69.9" y="64" width="2.5" height="16" rx="1.25"/>
      <rect x="74.8" y="68" width="2.5" height="8"  rx="1.25"/>
      <rect x="79.7" y="66" width="2.5" height="12" rx="1.25"/>
    </g>

    <rect x="47.5" y="58" width="2.5" height="28" rx="1.25" fill="#e8590c"/>
  </g>
</svg>
